<?xml version="1.0"?>
<svg xmlns="http://www.w3.org/2000/svg" version="1.2" baseProfile="tiny" width="1200" height="931" viewBox="0 0 1200 931" stroke-linecap="round" stroke-linejoin="round">
<g id="postal_areas">
<path d="M 700.2 755.7 668.6 738.3 668.8 720.9 704.3 712.2 714.9 717.8 728.9 747.7 716.3 752.2 700.2 755.7 Z" fill="#0d366b" stroke="#ffffff" stroke-width="0.6"/>
<path d="M 692.4 768.5 700.2 755.7 716.3 752.2 720.6 769.4 692.4 768.5 Z" fill="#0d366b" stroke="#ffffff" stroke-width="0.6"/>
<path d="M 720.9 769.7 720.6 769.4 716.3 752.2 728.9 747.7 733.7 751.8 738.2 765.4 720.9 769.7 Z" fill="#0d366b" stroke="#ffffff" stroke-width="0.6"/>
<path d="M 866.5 730.9 859.6 764.1 842.3 719 866.5 730.9 Z" fill="#0d366b" stroke="#ffffff" stroke-width="0.6"/>
<path d="M 734.4 582.7 737.8 576.6 744.9 574.2 771.3 589.4 768.5 599.1 734.4 582.7 Z" fill="#256abf" stroke="#ffffff" stroke-width="0.6"/>
<path d="M 768.5 599.1 733.9 634.1 705.4 627.7 712.3 594.1 734.4 582.7 768.5 599.1 Z" fill="#184f95" stroke="#ffffff" stroke-width="0.6"/>
<path d="M 737.8 576.6 734.4 582.7 712.3 594.1 686.4 591 675.9 590.4 671.3 581.4 724.5 552.5 737.8 576.6 Z" fill="#256abf" stroke="#ffffff" stroke-width="0.6"/>
<path d="M 718.8 790 720.9 769.7 738.2 765.4 718.8 790 Z" fill="#0d366b" stroke="#ffffff" stroke-width="0.6"/>
<path d="M 731.1 528.5 731.8 532.1 724.5 552.5 671.3 581.4 668.2 580.9 656.2 534.7 667.3 528.1 731.1 528.5 Z" fill="#3987e5" stroke="#ffffff" stroke-width="0.6"/>
<path d="M 785 526.6 744.9 574.2 737.8 576.6 724.5 552.5 731.8 532.1 765.9 510.6 785 526.6 Z" fill="#3987e5" stroke="#ffffff" stroke-width="0.6"/>
<path d="M 780.7 580.2 771.3 589.4 744.9 574.2 785 526.6 793.6 536.3 780.7 580.2 Z" fill="#256abf" stroke="#ffffff" stroke-width="0.6"/>
<path d="M 667.3 528.1 674.3 496.2 730.5 493.4 731.1 528.5 667.3 528.1 Z" fill="#3987e5" stroke="#ffffff" stroke-width="0.6"/>
<path d="M 720.6 769.4 720.9 769.7 718.8 790 682.8 790.2 685.6 772.6 692.4 768.5 720.6 769.4 Z" fill="#0d366b" stroke="#ffffff" stroke-width="0.6"/>
<path d="M 757.4 763 746.9 744.3 770.6 746 757.4 763 Z" fill="#0d366b" stroke="#ffffff" stroke-width="0.6"/>
<path d="M 733.7 751.8 728.9 747.7 714.9 717.8 745.2 718.4 733.7 751.8 Z" fill="#0d366b" stroke="#ffffff" stroke-width="0.6"/>
<path d="M 737.2 474.6 730.5 493.4 674.3 496.2 663.3 425.7 711 410.9 737.2 474.6 Z" fill="#3987e5" stroke="#ffffff" stroke-width="0.6"/>
<path d="M 777.8 481.4 772.6 491.4 765.9 510.6 731.8 532.1 731.1 528.5 730.5 493.4 737.2 474.6 777.8 481.4 Z" fill="#3987e5" stroke="#ffffff" stroke-width="0.6"/>
<path d="M 700.2 755.7 692.4 768.5 685.6 772.6 666.7 799.2 668.6 738.3 700.2 755.7 Z" fill="#0d366b" stroke="#ffffff" stroke-width="0.6"/>
<path d="M 784.6 844.8 769.3 821.1 781.1 820.8 784.6 844.8 Z" fill="#0d366b" stroke="#ffffff" stroke-width="0.6"/>
<path d="M 769.9 440.5 777.8 481.4 737.2 474.6 711 410.9 732.4 395.5 769.9 440.5 Z" fill="#3987e5" stroke="#ffffff" stroke-width="0.6"/>
<path d="M 627.3 778.3 604.3 787.7 574.9 760.2 617.9 752.1 627.3 778.3 Z" fill="#0d366b" stroke="#ffffff" stroke-width="0.6"/>
<path d="M 822 453.6 881.6 466.9 916.4 499 880.8 532.1 840.2 553.5 822.6 515.2 803.4 488.1 822 453.6 Z" fill="#6da7ec" stroke="#ffffff" stroke-width="0.6"/>
<path d="M 840.2 553.5 819.6 563 780.7 580.2 793.6 536.3 822.6 515.2 840.2 553.5 Z" fill="#9ec5f4" stroke="#ffffff" stroke-width="0.6"/>
<path d="M 604.3 787.7 627.3 778.3 629.8 812.8 603.8 816.8 604.3 787.7 Z" fill="#0d366b" stroke="#ffffff" stroke-width="0.6"/>
<path d="M 682.8 790.2 666.7 799.2 685.6 772.6 682.8 790.2 Z" fill="#0d366b" stroke="#ffffff" stroke-width="0.6"/>
<path d="M 677.4 605.1 676.3 597.6 675.9 590.4 686.4 591 677.4 605.1 Z" fill="#9ec5f4" stroke="#ffffff" stroke-width="0.6"/>
<path d="M 712.3 594.1 705.4 627.7 700.7 668.2 675.7 659.2 675.1 653.3 670.3 618.4 677.4 605.1 686.4 591 712.3 594.1 Z" fill="#184f95" stroke="#ffffff" stroke-width="0.6"/>
<path d="M 803.4 488.1 822.6 515.2 793.6 536.3 785 526.6 765.9 510.6 772.6 491.4 803.4 488.1 Z" fill="#9ec5f4" stroke="#ffffff" stroke-width="0.6"/>
<path d="M 667 673.3 675.7 659.2 700.7 668.2 706.8 680.8 705.3 686.7 705 693.9 668 702.2 620.3 671.5 631.6 657.1 649 672.1 662.7 690.6 667 673.3 Z" fill="#0d366b" stroke="#ffffff" stroke-width="0.6"/>
<path d="M 668.8 720.9 668 702.2 705 693.9 704.3 712.2 668.8 720.9 Z" fill="#0d366b" stroke="#ffffff" stroke-width="0.6"/>
<path d="M 667 673.3 649 672.1 631.6 657.1 636 650.1 653.4 652.2 675.1 653.3 675.7 659.2 667 673.3 Z" fill="#0d366b" stroke="#ffffff" stroke-width="0.6"/>
<path d="M 670.3 618.4 675.1 653.3 653.4 652.2 648.2 618.3 670.3 618.4 Z" fill="#0d366b" stroke="#ffffff" stroke-width="0.6"/>
<path d="M 649 672.1 667 673.3 662.7 690.6 649 672.1 Z" fill="#0d366b" stroke="#ffffff" stroke-width="0.6"/>
<path d="M 653.4 652.2 636 650.1 633.8 640.1 636.3 616.3 648.2 618.3 653.4 652.2 Z" fill="#256abf" stroke="#ffffff" stroke-width="0.6"/>
<path d="M 648.2 618.3 676.3 597.6 677.4 605.1 670.3 618.4 648.2 618.3 Z" fill="#3987e5" stroke="#ffffff" stroke-width="0.6"/>
<path d="M 676.3 597.6 648.2 618.3 636.3 616.3 627.6 598 624.2 572 624.6 564.5 627.2 563.2 668.2 580.9 671.3 581.4 675.9 590.4 676.3 597.6 Z" fill="#184f95" stroke="#ffffff" stroke-width="0.6"/>
<path d="M 633.8 640.1 636 650.1 631.6 657.1 620.3 671.5 572.7 624.7 633.8 640.1 Z" fill="#0d366b" stroke="#ffffff" stroke-width="0.6"/>
<path d="M 579.9 724 562.8 705 575.1 695.3 584.5 705.1 579.9 724 Z" fill="#3987e5" stroke="#ffffff" stroke-width="0.6"/>
<path d="M 636.3 616.3 633.8 640.1 572.7 624.7 567 611.1 565.8 607.5 576.1 601.9 578.9 601.7 627.6 598 636.3 616.3 Z" fill="#256abf" stroke="#ffffff" stroke-width="0.6"/>
<path d="M 578.9 601.7 576.1 601.9 592.3 577.8 578.9 601.7 Z" fill="#256abf" stroke="#ffffff" stroke-width="0.6"/>
<path d="M 603.7 541.5 624.6 564.5 624.2 572 592.3 577.8 576.1 601.9 565.8 607.5 551.4 581.1 554.2 549.1 603.7 541.5 Z" fill="#3987e5" stroke="#ffffff" stroke-width="0.6"/>
<path d="M 624.2 572 627.6 598 578.9 601.7 592.3 577.8 624.2 572 Z" fill="#184f95" stroke="#ffffff" stroke-width="0.6"/>
<path d="M 595.5 514 604.1 535.3 603.7 541.5 554.2 549.1 555.9 537 541.5 483.4 543.2 472.3 561.1 465.7 595.5 514 Z" fill="#6da7ec" stroke="#ffffff" stroke-width="0.6"/>
<path d="M 668.2 580.9 627.2 563.2 650.5 535.1 650.9 533.2 656.2 534.7 668.2 580.9 Z" fill="#256abf" stroke="#ffffff" stroke-width="0.6"/>
<path d="M 595.5 514 561.1 465.7 561.3 454.6 595.4 468.1 604.9 473.7 595.5 514 Z" fill="#cde2fb" stroke="#ffffff" stroke-width="0.6"/>
<path d="M 624.3 456.6 650.9 533.2 650.5 535.1 604.1 535.3 595.5 514 604.9 473.7 624.3 456.6 Z" fill="#9ec5f4" stroke="#ffffff" stroke-width="0.6"/>
<path d="M 656.2 534.7 650.9 533.2 624.3 456.6 658.4 419.4 663.3 425.7 674.3 496.2 667.3 528.1 656.2 534.7 Z" fill="#256abf" stroke="#ffffff" stroke-width="0.6"/>
<path d="M 624.6 564.5 603.7 541.5 604.1 535.3 650.5 535.1 627.2 563.2 624.6 564.5 Z" fill="#6da7ec" stroke="#ffffff" stroke-width="0.6"/>
<path d="M 748.4 676.5 750.8 679.5 762 686.8 758.4 704.7 733.8 687.5 748.4 676.5 Z" fill="#184f95" stroke="#ffffff" stroke-width="0.6"/>
<path d="M 748.4 676.5 733.8 687.5 705.3 686.7 706.8 680.8 727.8 652.9 748.4 676.5 Z" fill="#184f95" stroke="#ffffff" stroke-width="0.6"/>
<path d="M 733.9 634.1 737.4 637.8 727.8 652.9 706.8 680.8 700.7 668.2 705.4 627.7 733.9 634.1 Z" fill="#0d366b" stroke="#ffffff" stroke-width="0.6"/>
<path d="M 714.9 717.8 704.3 712.2 705 693.9 705.3 686.7 733.8 687.5 758.4 704.7 758.5 713.5 745.2 718.4 714.9 717.8 Z" fill="#184f95" stroke="#ffffff" stroke-width="0.6"/>
<path d="M 762 686.8 782.6 690 758.5 713.5 758.4 704.7 762 686.8 Z" fill="#0d366b" stroke="#ffffff" stroke-width="0.6"/>
<path d="M 762.6 647.1 750.8 679.5 748.4 676.5 727.8 652.9 737.4 637.8 762.6 647.1 Z" fill="#184f95" stroke="#ffffff" stroke-width="0.6"/>
<path d="M 881.9 431.8 886.9 453.9 881.6 466.9 822 453.6 812.2 443.2 839.9 413.8 881.9 431.8 Z" fill="#256abf" stroke="#ffffff" stroke-width="0.6"/>
<path d="M 839 374.5 839.9 413.8 812.2 443.2 771.3 439.3 772.9 429.2 815.1 373.8 839 374.5 Z" fill="#cde2fb" stroke="#ffffff" stroke-width="0.6"/>
<path d="M 841.1 608.6 822.9 599.5 819.6 563 840.2 553.5 880.8 532.1 894.5 552.5 870.4 581.6 841.1 608.6 Z" fill="#184f95" stroke="#ffffff" stroke-width="0.6"/>
<path d="M 822.9 599.5 776.8 645 762.6 647.1 737.4 637.8 733.9 634.1 768.5 599.1 771.3 589.4 780.7 580.2 819.6 563 822.9 599.5 Z" fill="#0d366b" stroke="#ffffff" stroke-width="0.6"/>
<path d="M 905.8 387.6 901.9 402.2 881.9 431.8 839.9 413.8 839 374.5 905.8 387.6 Z" fill="#cde2fb" stroke="#ffffff" stroke-width="0.6"/>
<path d="M 901.9 402.2 944 412.3 951.2 417.5 947 432.7 886.9 453.9 881.9 431.8 901.9 402.2 Z" fill="#9ec5f4" stroke="#ffffff" stroke-width="0.6"/>
<path d="M 955.1 474.6 941.6 494.5 916.4 499 881.6 466.9 886.9 453.9 947 432.7 955.1 474.6 Z" fill="#9ec5f4" stroke="#ffffff" stroke-width="0.6"/>
<path d="M 830.4 715.1 797.9 695.7 820.3 678.4 830.4 715.1 Z" fill="#0d366b" stroke="#ffffff" stroke-width="0.6"/>
<path d="M 782.6 690 762 686.8 750.8 679.5 762.6 647.1 776.8 645 782.6 690 Z" fill="#0d366b" stroke="#ffffff" stroke-width="0.6"/>
<path d="M 812.2 443.2 822 453.6 803.4 488.1 772.6 491.4 777.8 481.4 769.9 440.5 771.3 439.3 812.2 443.2 Z" fill="#6da7ec" stroke="#ffffff" stroke-width="0.6"/>
<path d="M 864.4 656.1 839.6 638.7 841.1 608.6 870.4 581.6 902.4 605.1 864.4 656.1 Z" fill="#184f95" stroke="#ffffff" stroke-width="0.6"/>
<path d="M 864.4 656.1 883.8 667.5 890.3 673.6 852.2 693.4 839.6 638.7 864.4 656.1 Z" fill="#184f95" stroke="#ffffff" stroke-width="0.6"/>
<path d="M 890.3 673.6 883.8 667.5 914.5 626.5 917.3 656.4 890.3 673.6 Z" fill="#256abf" stroke="#ffffff" stroke-width="0.6"/>
<path d="M 959.9 203.7 997.3 219.8 1013.8 234.4 953.5 267.7 884.7 245.7 885.9 208.1 959.9 203.7 Z" fill="#3987e5" stroke="#ffffff" stroke-width="0.6"/>
<path d="M 943.1 698.1 926.7 717.3 911.9 702.7 924.4 687.1 943.1 698.1 Z" fill="#3987e5" stroke="#ffffff" stroke-width="0.6"/>
<path d="M 891.7 760.5 866.5 730.9 842.3 719 896.8 690.8 908.7 753.8 891.7 760.5 Z" fill="#6da7ec" stroke="#ffffff" stroke-width="0.6"/>
<path d="M 900.9 781.1 891.7 760.5 908.7 753.8 900.9 781.1 Z" fill="#3987e5" stroke="#ffffff" stroke-width="0.6"/>
<path d="M 901.4 801.7 878.3 849.2 845.3 824 901.4 801.7 Z" fill="#9ec5f4" stroke="#ffffff" stroke-width="0.6"/>
<path d="M 900.9 781.1 859.6 764.1 866.5 730.9 891.7 760.5 900.9 781.1 Z" fill="#6da7ec" stroke="#ffffff" stroke-width="0.6"/>
<path d="M 912 621.1 914.5 626.5 883.8 667.5 864.4 656.1 902.4 605.1 912 621.1 Z" fill="#3987e5" stroke="#ffffff" stroke-width="0.6"/>
<path d="M 1013.8 234.4 1022.8 291 986.7 293.9 953.5 267.7 1013.8 234.4 Z" fill="#9ec5f4" stroke="#ffffff" stroke-width="0.6"/>
<path d="M 1002.6 127.9 1019.1 153.6 1013.9 170.5 959.9 203.7 885.9 208.1 872.6 201.8 860.1 164.7 898.9 95.7 921.4 90.1 1002.6 127.9 Z" fill="#cde2fb" stroke="#ffffff" stroke-width="0.6"/>
<path d="M 1103.1 576.1 1059.7 564.1 1048.8 554.9 1029.7 516.4 1030.5 513.1 1038.4 435.7 1126.2 371.3 1182.8 334.1 1199 423.7 1177.3 474.9 1103.1 576.1 Z" fill="#9ec5f4" stroke="#ffffff" stroke-width="0.6"/>
<path d="M 964 601.4 947.7 610.4 914.5 626.5 912 621.1 939.3 587.5 964 601.4 Z" fill="#9ec5f4" stroke="#ffffff" stroke-width="0.6"/>
<path d="M 990.6 613.9 967.1 632.6 947.7 610.4 964 601.4 990.6 613.9 Z" fill="#6da7ec" stroke="#ffffff" stroke-width="0.6"/>
<path d="M 894.5 552.5 961.8 564.9 939.3 587.5 912 621.1 902.4 605.1 870.4 581.6 894.5 552.5 Z" fill="#9ec5f4" stroke="#ffffff" stroke-width="0.6"/>
<path d="M 917.3 656.4 914.5 626.5 947.7 610.4 967.1 632.6 917.3 656.4 Z" fill="#9ec5f4" stroke="#ffffff" stroke-width="0.6"/>
<path d="M 961.8 564.9 894.5 552.5 880.8 532.1 916.4 499 941.6 494.5 980 519.6 970 555.3 961.8 564.9 Z" fill="#cde2fb" stroke="#ffffff" stroke-width="0.6"/>
<path d="M 1010.5 576.1 1001.5 600.1 996.5 608.5 990.6 613.9 964 601.4 939.3 587.5 961.8 564.9 970 555.3 1010.5 576.1 Z" fill="#6da7ec" stroke="#ffffff" stroke-width="0.6"/>
<path d="M 1001.5 600.1 1010.5 576.1 1048.8 554.9 1059.7 564.1 1001.5 600.1 Z" fill="#9ec5f4" stroke="#ffffff" stroke-width="0.6"/>
<path d="M 1029.7 516.4 1048.8 554.9 1010.5 576.1 970 555.3 980 519.6 1029.7 516.4 Z" fill="#cde2fb" stroke="#ffffff" stroke-width="0.6"/>
<path d="M 1059.7 564.1 1103.1 576.1 1092.5 629.6 1041.6 655.3 996.5 608.5 1001.5 600.1 1059.7 564.1 Z" fill="#6da7ec" stroke="#ffffff" stroke-width="0.6"/>
<path d="M 1041.6 655.3 1092.5 629.6 1082.5 676.8 1041.6 655.3 Z" fill="#184f95" stroke="#ffffff" stroke-width="0.6"/>
<path d="M 1126.2 371.3 1038.4 435.7 1030.5 513.1 1005.6 480.6 951.2 417.5 944 412.3 960.4 370.5 1035.2 375.9 1068.8 306.7 1126.2 371.3 Z" fill="#cde2fb" stroke="#ffffff" stroke-width="0.6"/>
<path d="M 955.1 474.6 947 432.7 951.2 417.5 1005.6 480.6 955.1 474.6 Z" fill="#cde2fb" stroke="#ffffff" stroke-width="0.6"/>
<path d="M 1022.8 291 1036.6 293.1 1068.8 306.7 1035.2 375.9 960.4 370.5 974.1 315.5 986.7 293.9 1022.8 291 Z" fill="#9ec5f4" stroke="#ffffff" stroke-width="0.6"/>
<path d="M 1005.6 480.6 1030.5 513.1 1029.7 516.4 980 519.6 941.6 494.5 955.1 474.6 1005.6 480.6 Z" fill="#cde2fb" stroke="#ffffff" stroke-width="0.6"/>
<path d="M 894.6 327.6 908.3 373.9 905.8 387.6 839 374.5 815.1 373.8 835.3 313.4 843.9 305.5 894.6 327.6 Z" fill="#256abf" stroke="#ffffff" stroke-width="0.6"/>
<path d="M 874.6 253.6 882 249.6 888.4 255.3 889.4 267.2 877.8 262.2 874.6 253.6 Z" fill="#256abf" stroke="#ffffff" stroke-width="0.6"/>
<path d="M 843.9 305.5 864.9 274.3 907.7 315.9 894.6 327.6 843.9 305.5 Z" fill="#9ec5f4" stroke="#ffffff" stroke-width="0.6"/>
<path d="M 953.5 267.7 986.7 293.9 974.1 315.5 954.8 308.1 907.7 315.9 864.9 274.3 874.6 253.6 877.8 262.2 889.4 267.2 888.4 255.3 882 249.6 884.7 245.7 953.5 267.7 Z" fill="#cde2fb" stroke="#ffffff" stroke-width="0.6"/>
<path d="M 908.3 373.9 894.6 327.6 907.7 315.9 954.8 308.1 908.3 373.9 Z" fill="#6da7ec" stroke="#ffffff" stroke-width="0.6"/>
<path d="M 944 412.3 901.9 402.2 905.8 387.6 908.3 373.9 954.8 308.1 974.1 315.5 960.4 370.5 944 412.3 Z" fill="#256abf" stroke="#ffffff" stroke-width="0.6"/>
<path d="M 804.6 311.2 801.9 234.7 872.6 201.8 885.9 208.1 884.7 245.7 882 249.6 874.6 253.6 864.9 274.3 843.9 305.5 835.3 313.4 804.6 311.2 Z" fill="#9ec5f4" stroke="#ffffff" stroke-width="0.6"/>
<path d="M 997.3 219.8 959.9 203.7 1013.9 170.5 997.3 219.8 Z" fill="#cde2fb" stroke="#ffffff" stroke-width="0.6"/>
<path d="M 1036.6 293.1 1022.8 291 1013.8 234.4 997.3 219.8 1013.9 170.5 1019.1 153.6 1030.1 144.7 1062.5 193.2 1036.6 293.1 Z" fill="#9ec5f4" stroke="#ffffff" stroke-width="0.6"/>
<path d="M 835.3 313.4 815.1 373.8 772.9 429.2 732.2 394.8 711.3 358.8 714.6 340.8 804.6 311.2 835.3 313.4 Z" fill="#256abf" stroke="#ffffff" stroke-width="0.6"/>
<path d="M 772.9 429.2 771.3 439.3 769.9 440.5 732.4 395.5 732.2 394.8 772.9 429.2 Z" fill="#256abf" stroke="#ffffff" stroke-width="0.6"/>
<path d="M 801.9 234.7 804.6 311.2 714.6 340.8 669.7 285 666.3 241.6 726.6 217.3 801.9 234.7 Z" fill="#256abf" stroke="#ffffff" stroke-width="0.6"/>
<path d="M 604.8 413.4 595.4 468.1 561.3 454.6 558.9 413.2 604.8 413.4 Z" fill="#cde2fb" stroke="#ffffff" stroke-width="0.6"/>
<path d="M 604.9 473.7 595.4 468.1 604.8 413.4 611.7 410.3 642.7 410.3 648 410.5 658.4 419.4 624.3 456.6 604.9 473.7 Z" fill="#cde2fb" stroke="#ffffff" stroke-width="0.6"/>
<path d="M 579.3 363.7 590.5 369 611.7 410.3 604.8 413.4 558.9 413.2 552 407.1 549.3 402.7 552.8 360.5 579.3 363.7 Z" fill="#cde2fb" stroke="#ffffff" stroke-width="0.6"/>
<path d="M 472.6 448.3 460.6 444 447.2 433.7 457.5 418.3 495.4 396.3 511.5 416.2 512.2 429 472.6 448.3 Z" fill="#9ec5f4" stroke="#ffffff" stroke-width="0.6"/>
<path d="M 518.3 445 543.2 472.3 541.5 483.4 535.9 487.2 486.1 503.2 475.4 495 460.6 444 472.6 448.3 518.3 445 Z" fill="#9ec5f4" stroke="#ffffff" stroke-width="0.6"/>
<path d="M 543.2 472.3 518.3 445 517.7 440 552 407.1 558.9 413.2 561.3 454.6 561.1 465.7 543.2 472.3 Z" fill="#cde2fb" stroke="#ffffff" stroke-width="0.6"/>
<path d="M 552 407.1 517.7 440 512.2 429 511.5 416.2 549.3 402.7 552 407.1 Z" fill="#9ec5f4" stroke="#ffffff" stroke-width="0.6"/>
<path d="M 611.7 410.3 590.5 369 596.1 353.8 605.9 343.6 642.7 410.3 611.7 410.3 Z" fill="#9ec5f4" stroke="#ffffff" stroke-width="0.6"/>
<path d="M 495.4 396.3 457.5 418.3 453.6 348.4 475.9 298.3 497.1 294.8 517.9 338.1 495.4 396.3 Z" fill="#cde2fb" stroke="#ffffff" stroke-width="0.6"/>
<path d="M 711.3 358.8 732.2 394.8 732.4 395.5 711 410.9 663.3 425.7 658.4 419.4 648 410.5 711.3 358.8 Z" fill="#256abf" stroke="#ffffff" stroke-width="0.6"/>
<path d="M 530.9 272.3 591.4 211.4 581.4 287.7 530.9 272.3 Z" fill="#256abf" stroke="#ffffff" stroke-width="0.6"/>
<path d="M 472.6 448.3 512.2 429 517.7 440 518.3 445 472.6 448.3 Z" fill="#cde2fb" stroke="#ffffff" stroke-width="0.6"/>
<path d="M 511.5 416.2 495.4 396.3 517.9 338.1 552.8 360.5 549.3 402.7 511.5 416.2 Z" fill="#cde2fb" stroke="#ffffff" stroke-width="0.6"/>
<path d="M 596.1 208.2 666.3 241.6 669.7 285 605.9 343.6 596.1 353.8 579.3 363.7 552.8 360.5 517.9 338.1 497.1 294.8 530.9 272.3 581.4 287.7 591.4 211.4 596.1 208.2 Z" fill="#cde2fb" stroke="#ffffff" stroke-width="0.6"/>
<path d="M 714.6 340.8 711.3 358.8 648 410.5 642.7 410.3 605.9 343.6 669.7 285 714.6 340.8 Z" fill="#cde2fb" stroke="#ffffff" stroke-width="0.6"/>
<path d="M 596.1 208.2 591.4 211.4 530.9 272.3 497.1 294.8 475.9 298.3 424.2 196.9 481 126.4 536.4 94.2 552.9 194.7 596.1 208.2 Z" fill="#cde2fb" stroke="#ffffff" stroke-width="0.6"/>
<path d="M 726.6 217.3 666.3 241.6 596.1 208.2 552.9 194.7 536.4 94.2 529.2 72 566.1 25.6 624.4 1 656.8 94.5 726.6 217.3 Z" fill="#cde2fb" stroke="#ffffff" stroke-width="0.6"/>
<path d="M 579.3 363.7 596.1 353.8 590.5 369 579.3 363.7 Z" fill="#cde2fb" stroke="#ffffff" stroke-width="0.6"/>
<path d="M 539.3 736.7 542.5 748.6 525.1 739.5 523.2 733.9 529 735.4 539.3 736.7 Z M 509 686.2 517.9 719.6 511.1 737.8 486.9 736.6 471 705.9 509 686.2 Z" fill-rule="evenodd" fill="#0d366b" stroke="#ffffff" stroke-width="0.6"/>
<path d="M 529 735.4 523.2 733.9 517.9 719.6 509 686.2 509.6 685.6 537.8 713.1 529 735.4 Z" fill="#184f95" stroke="#ffffff" stroke-width="0.6"/>
<path d="M 486.9 736.6 467.1 736 466.9 736 471 705.9 486.9 736.6 Z" fill="#184f95" stroke="#ffffff" stroke-width="0.6"/>
<path d="M 517.5 663.9 521.7 670.3 509.6 685.6 509 686.2 471 705.9 451.8 686.6 476.1 634 517.5 663.9 Z" fill="#184f95" stroke="#ffffff" stroke-width="0.6"/>
<path d="M 522.4 647.3 517.5 663.9 476.1 634 468.5 615.4 522.4 647.3 Z" fill="#3987e5" stroke="#ffffff" stroke-width="0.6"/>
<path d="M 529 735.4 537.8 713.1 509.6 685.6 521.7 670.3 557 672.7 539.3 736.7 529 735.4 Z" fill="#184f95" stroke="#ffffff" stroke-width="0.6"/>
<path d="M 511.1 737.8 471.9 776.1 467.1 736 486.9 736.6 511.1 737.8 Z" fill="#184f95" stroke="#ffffff" stroke-width="0.6"/>
<path d="M 471.9 776.1 444.6 776.5 420.3 746.5 466.9 736 467.1 736 471.9 776.1 Z" fill="#184f95" stroke="#ffffff" stroke-width="0.6"/>
<path d="M 476.1 634 451.8 686.6 412.4 685.6 407 660.5 412.8 618.7 476.1 634 Z" fill="#3987e5" stroke="#ffffff" stroke-width="0.6"/>
<path d="M 451.8 686.6 471 705.9 466.9 736 420.3 746.5 385.2 751.2 387 744.1 406.5 693.3 412.4 685.6 451.8 686.6 Z" fill="#184f95" stroke="#ffffff" stroke-width="0.6"/>
<path d="M 351.3 686.8 406.5 693.3 387 744.1 333.7 722.2 341.3 676.6 351.3 686.8 Z" fill="#6da7ec" stroke="#ffffff" stroke-width="0.6"/>
<path d="M 444.6 776.5 368.5 795.9 356.9 756.5 385.2 751.2 420.3 746.5 444.6 776.5 Z" fill="#256abf" stroke="#ffffff" stroke-width="0.6"/>
<path d="M 387 744.1 385.2 751.2 356.9 756.5 334.8 728.2 333.7 722.2 387 744.1 Z" fill="#184f95" stroke="#ffffff" stroke-width="0.6"/>
<path d="M 412.4 685.6 406.5 693.3 351.3 686.8 407 660.5 412.4 685.6 Z" fill="#184f95" stroke="#ffffff" stroke-width="0.6"/>
<path d="M 310.1 830.2 300.3 781.4 307.8 775.7 353.7 808.8 310.1 830.2 Z" fill="#6da7ec" stroke="#ffffff" stroke-width="0.6"/>
<path d="M 334.8 728.2 356.9 756.5 368.5 795.9 353.7 808.8 307.8 775.7 306.1 743.2 334.8 728.2 Z" fill="#3987e5" stroke="#ffffff" stroke-width="0.6"/>
<path d="M 306.1 743.2 295.7 738.3 284.2 715.9 302.9 674.9 313.4 665.1 330.3 664.4 341.3 676.6 333.7 722.2 334.8 728.2 306.1 743.2 Z" fill="#3987e5" stroke="#ffffff" stroke-width="0.6"/>
<path d="M 306.1 743.2 307.8 775.7 300.3 781.4 277.9 779.3 261.5 770.2 295.7 738.3 306.1 743.2 Z" fill="#3987e5" stroke="#ffffff" stroke-width="0.6"/>
<path d="M 261.5 770.2 277.9 779.3 257.8 820.9 199.8 763.4 261.5 770.2 Z" fill="#6da7ec" stroke="#ffffff" stroke-width="0.6"/>
<path d="M 284.2 715.9 295.7 738.3 261.5 770.2 199.8 763.4 177.5 742.2 227 701.1 284.2 715.9 Z" fill="#256abf" stroke="#ffffff" stroke-width="0.6"/>
<path d="M 302.9 674.9 284.2 715.9 227 701.1 242 670.1 302.9 674.9 Z" fill="#6da7ec" stroke="#ffffff" stroke-width="0.6"/>
<path d="M 300.3 781.4 310.1 830.2 322.5 833 313.6 860.2 257.8 820.9 277.9 779.3 300.3 781.4 Z" fill="#9ec5f4" stroke="#ffffff" stroke-width="0.6"/>
<path d="M 368.9 882.4 336.7 929.5 306.4 912.7 368.9 882.4 Z" fill="#184f95" stroke="#ffffff" stroke-width="0.6"/>
<path d="M 551.4 581.1 565.8 607.5 567 611.1 522.4 647.3 468.5 615.4 466.9 601.2 491.2 575.2 551.4 581.1 Z" fill="#256abf" stroke="#ffffff" stroke-width="0.6"/>
<path d="M 485.7 551.1 491.2 575.2 466.9 601.2 415 588.3 423.9 551.3 485.7 551.1 Z" fill="#256abf" stroke="#ffffff" stroke-width="0.6"/>
<path d="M 487.5 548.5 485.7 551.1 423.9 551.3 438 508.8 475.4 495 486.1 503.2 487.5 548.5 Z" fill="#6da7ec" stroke="#ffffff" stroke-width="0.6"/>
<path d="M 466.9 601.2 468.5 615.4 476.1 634 412.8 618.7 413.8 589.6 415 588.3 466.9 601.2 Z" fill="#6da7ec" stroke="#ffffff" stroke-width="0.6"/>
<path d="M 554.2 549.1 551.4 581.1 491.2 575.2 485.7 551.1 487.5 548.5 543.5 539.2 555.9 537 554.2 549.1 Z" fill="#256abf" stroke="#ffffff" stroke-width="0.6"/>
<path d="M 535.9 487.2 543.5 539.2 487.5 548.5 486.1 503.2 535.9 487.2 Z" fill="#3987e5" stroke="#ffffff" stroke-width="0.6"/>
<path d="M 555.9 537 543.5 539.2 535.9 487.2 541.5 483.4 555.9 537 Z" fill="#184f95" stroke="#ffffff" stroke-width="0.6"/>
<path d="M 407.8 591.7 331 613 311.3 587.7 329.7 569.7 363.9 553.5 407.8 591.7 Z" fill="#184f95" stroke="#ffffff" stroke-width="0.6"/>
<path d="M 423.9 551.3 415 588.3 413.8 589.6 407.8 591.7 363.9 553.5 390.4 529.8 433.4 504.7 438 508.8 423.9 551.3 Z" fill="#9ec5f4" stroke="#ffffff" stroke-width="0.6"/>
<path d="M 433.4 504.7 390.4 529.8 395.8 483.1 409.1 481.3 433.4 504.7 Z" fill="#6da7ec" stroke="#ffffff" stroke-width="0.6"/>
<path d="M 460.6 444 475.4 495 438 508.8 433.4 504.7 409.1 481.3 447.2 433.7 460.6 444 Z" fill="#3987e5" stroke="#ffffff" stroke-width="0.6"/>
<path d="M 329.7 569.7 311.3 587.7 304.3 587.4 257.8 568.1 227.4 503.7 206.2 391.5 234.7 289.3 277.8 278.7 283.4 287.1 310.1 383.4 299.9 517.5 329.7 569.7 Z" fill="#3987e5" stroke="#ffffff" stroke-width="0.6"/>
<path d="M 412.8 618.7 407 660.5 351.3 686.8 341.3 676.6 330.3 664.4 331 613 407.8 591.7 413.8 589.6 412.8 618.7 Z" fill="#256abf" stroke="#ffffff" stroke-width="0.6"/>
<path d="M 304.3 587.4 311.3 587.7 331 613 330.3 664.4 313.4 665.1 304.3 587.4 Z" fill="#6da7ec" stroke="#ffffff" stroke-width="0.6"/>
<path d="M 257.8 568.1 304.3 587.4 313.4 665.1 302.9 674.9 242 670.1 202.9 593.3 257.8 568.1 Z" fill="#9ec5f4" stroke="#ffffff" stroke-width="0.6"/>
<path d="M 202.9 593.3 242 670.1 227 701.1 177.5 742.2 123.1 707.5 93.1 649.3 29.2 580 68.8 546.1 177.9 584.6 202.9 593.3 Z" fill="#3987e5" stroke="#ffffff" stroke-width="0.6"/>
<path d="M 257.8 568.1 202.9 593.3 177.9 584.6 227.4 503.7 257.8 568.1 Z" fill="#6da7ec" stroke="#ffffff" stroke-width="0.6"/>
<path d="M 153.2 240.4 177.6 306.5 234.7 289.3 206.2 391.5 227.4 503.7 177.9 584.6 68.8 546.1 8.8 472 12.3 414.8 111.1 424.1 97.6 313.4 22.1 303.4 1 283.2 27.4 157.3 51.6 195.6 153.2 240.4 Z" fill="#3987e5" stroke="#ffffff" stroke-width="0.6"/>
<path d="M 12.3 414.8 22.1 303.4 97.6 313.4 111.1 424.1 12.3 414.8 Z" fill="#6da7ec" stroke="#ffffff" stroke-width="0.6"/>
<path d="M 453.6 348.4 457.5 418.3 447.2 433.7 409.1 481.3 395.8 483.1 355.8 343.7 369.9 319.3 453.6 348.4 Z" fill="#6da7ec" stroke="#ffffff" stroke-width="0.6"/>
<path d="M 369.9 319.3 355.8 343.7 395.8 483.1 390.4 529.8 363.9 553.5 329.7 569.7 299.9 517.5 310.1 383.4 283.4 287.1 369.9 319.3 Z" fill="#6da7ec" stroke="#ffffff" stroke-width="0.6"/>
<path d="M 475.9 298.3 453.6 348.4 369.9 319.3 283.4 287.1 277.8 278.7 324.2 171.8 295.6 124.9 366.6 142.8 383.2 165.3 424.2 196.9 475.9 298.3 Z" fill="#6da7ec" stroke="#ffffff" stroke-width="0.6"/>
<path d="M 295.6 124.9 324.2 171.8 277.8 278.7 234.7 289.3 177.6 306.5 153.2 240.4 161.6 146.9 229.2 122.5 295.6 124.9 Z" fill="#6da7ec" stroke="#ffffff" stroke-width="0.6"/>
</g>
</svg>